<svg width="703" height="187" viewBox="0 0 703 187" fill="none" xmlns="http://www.w3.org/2000/svg">
<g clip-path="url(#clip0_2313_4562)">
<path d="M673.98 44.16L678.75 55.5L654.68 123.54L630.21 55.5L635.18 43.91H635.16L635.28 43.77H577.72V29.45C577.72 23.08 579.11 18.38 581.9 15.33C584.82 12.15 588.2 10.56 592.05 10.56C594.97 10.56 597.62 11.62 600.01 13.74C602.53 15.86 604.45 18.85 605.78 22.69L610.35 5.98001C607.83 3.99001 604.85 2.53001 601.4 1.60001C598.09 0.54001 594.57 0.0100098 590.86 0.0100098C584.89 0.0100098 579.45 1.20001 574.55 3.59001C569.64 5.98001 565.73 9.56001 562.81 14.33C559.89 19.1 558.43 25.07 558.43 32.23V43.77H539.93V55.51H558.43V136.48L551.47 147.42H587.08L577.73 136.28V55.5H609.93L610.12 55.7L644.93 145.82L642.34 152.58C639.95 158.55 636.97 162.79 633.39 165.31C629.81 167.96 625.96 169.29 621.85 169.29C619.07 169.29 616.48 168.89 614.09 168.1C611.84 167.3 609.85 166.11 608.12 164.52L602.75 182.42C604.61 183.61 606.93 184.61 609.71 185.4C612.5 186.2 615.41 186.59 618.46 186.59C623.37 186.59 627.88 185.6 631.99 183.61C636.23 181.75 640.08 178.7 643.53 174.46C647.11 170.22 650.29 164.58 653.08 157.55L692.47 55.7L702.02 44.16H673.97H673.98Z" fill="#090F1E"></path>
<path d="M406.03 43.17L379.77 47.75L386.73 58.69V108.42C385.8 113.72 383.94 118.37 381.16 122.35C378.51 126.33 375.33 129.44 371.61 131.7C367.9 133.82 363.92 134.88 359.68 134.88C355.83 134.88 352.25 134.08 348.94 132.49C345.76 130.77 343.24 128.25 341.38 124.93C339.66 121.48 338.79 117.11 338.79 111.8V43.17L312.53 47.75L319.49 58.69V113.99C319.49 121.42 320.95 127.78 323.87 133.09C326.92 138.26 331.1 142.31 336.4 145.23C341.71 148.01 347.74 149.41 354.5 149.41C359.27 149.41 363.72 148.48 367.83 146.62C371.94 144.76 375.65 142.24 378.97 139.06C382.29 135.74 384.87 131.9 386.73 127.52V147.41H412.99L406.03 136.47V43.17Z" fill="#090F1E"></path>
<path d="M301.55 77.58C301.55 70.15 300.02 63.79 296.97 58.48C294.05 53.18 289.94 49.13 284.64 46.35C279.34 43.56 273.23 42.17 266.34 42.17C261.57 42.17 257.06 43.1 252.81 44.96C248.7 46.68 245.05 49.2 241.87 52.52C238.69 55.84 236.1 59.68 234.11 64.06V43.17L207.85 47.75L214.81 59.49V136.48L207.85 147.42H241.07L234.11 136.48V82.97C235.04 77.67 236.83 73.09 239.48 69.24C242.13 65.26 245.32 62.21 249.03 60.09C252.74 57.84 256.72 56.71 260.97 56.71C265.22 56.71 269.13 57.57 272.31 59.3C275.49 61.02 277.95 63.61 279.67 67.06C281.39 70.38 282.26 74.62 282.26 79.79V136.49L275.3 147.43H308.52L301.56 136.49V77.6L301.55 77.58Z" fill="#090F1E"></path>
<path d="M447.27 1L421.01 5.57L427.97 17.31V136.47L421.01 147.41H454.23L447.27 136.47V1Z" fill="#090F1E"></path>
<path d="M488.51 1L462.25 5.57L469.21 17.31V136.47L462.25 147.41H495.47L488.51 136.47V1Z" fill="#090F1E"></path>
<path d="M530.34 43.17L504.08 47.74L511.05 59.48V136.47L504.08 147.41H537.31L530.34 136.47V43.17Z" fill="#090F1E"></path>
<path d="M520.287 1.00528L506.286 15.006L520.287 29.0067L534.288 15.006L520.287 1.00528Z" fill="#090F1E"></path>
<path d="M82 14.8C36.79 14.8 0 51.59 0 96.8C0 142.01 36.79 178.8 82 178.8C127.21 178.8 164 142.01 164 96.8C164 51.59 127.22 14.8 82 14.8ZM77 24.99V52.66C50.55 53.5 27.89 60.96 14.35 72.14C23.89 46.04 48.14 26.98 77 24.99ZM82 62.5801L72.79 87.61L47.77 96.79C47.78 77.93 63.13 62.5901 81.99 62.5801H82ZM49.91 66.4101C43.48 73.2001 39.17 82.02 38.06 91.8H11.76C15.25 80.85 29.99 71.4201 49.91 66.4101ZM38.06 101.8C39.17 111.58 43.47 120.4 49.91 127.19C29.99 122.18 15.25 112.75 11.76 101.8H38.06ZM77 168.61C48.14 166.62 23.89 147.56 14.35 121.46C27.89 132.64 50.55 140.1 77 140.94V168.61ZM47.77 96.82L72.79 106L82 131.03C63.14 131.03 47.79 115.68 47.78 96.82H47.77ZM91.21 106L116.23 96.82C116.22 115.68 100.87 131.02 82.01 131.03L91.22 106H91.21ZM82.01 62.5801C100.87 62.5801 116.22 77.92 116.23 96.79L91.21 87.61L82 62.5801H82.01ZM87 168.61V140.94C113.45 140.1 136.11 132.64 149.65 121.46C140.11 147.56 115.86 166.62 87 168.61ZM114.09 127.19C120.52 120.4 124.83 111.58 125.94 101.8H152.24C148.75 112.75 134.01 122.18 114.09 127.19ZM125.94 91.8C124.83 82.02 120.53 73.2001 114.09 66.4101C134.01 71.4201 148.75 80.85 152.24 91.8H125.94ZM87 52.66V24.99C115.86 26.98 140.11 46.04 149.65 72.14C136.11 60.96 113.45 53.5 87 52.66Z" fill="#090F1E"></path>
</g>
<defs>
<clipPath id="clip0_2313_4562">
<rect width="702.03" height="186.6" fill="white"></rect>
</clipPath>
</defs>
</svg>